# xmcd
#
# Track frame offsets: 
#        150
#        14214
#        25786
#        33199
#        43002
#        52361
#        64736
#        75421
#        88351
#        97948
#        110224
#        121540
#        134530
#        146701
#        159456
#        166501
#        176928
#        188493
#        199895
#        211056
#
# Disc length: 2886 seconds
#
# Revision: 0
# Processed by: cddbd v1.5.2PL0 Copyright (c) Steve Scherf et al.
# Submitted via: ExactAudioCopyFreeDBPlugin 1.0
#
DISCID=170b4414
DTITLE=George Jones - I Am What I Am
DYEAR=2003
DGENRE=Country
TTITLE0=A Good Year For The Roses
TTITLE1=She Thinks I Still Care
TTITLE2=Jambalaya
TTITLE3=Back In My Baby's Arms
TTITLE4=Worlds Worst Loser
TTITLE5=A Lifetime Of Regret
TTITLE6=Tender Years
TTITLE7=Things Have Gone To Pieces
TTITLE8=The Race Is On
TTITLE9=The Selfishness In Man
TTITLE10=There's No Justice
TTITLE11=Wedding Bells
TTITLE12=My Favourite Lies
TTITLE13=When I Wake Up From Dreaming
TTITLE14=Tender Years (Your Tender Years)
TTITLE15=Let A Little Love And Care In
TTITLE16=I Can't Change Overnight
TTITLE17=White Lightnin'
TTITLE18=Tarnished Angel
TTITLE19=Liberty
EXTD=
EXTT0=
EXTT1=
EXTT2=
EXTT3=
EXTT4=
EXTT5=
EXTT6=
EXTT7=
EXTT8=
EXTT9=
EXTT10=
EXTT11=
EXTT12=
EXTT13=
EXTT14=
EXTT15=
EXTT16=
EXTT17=
EXTT18=
EXTT19=
PLAYORDER=
